<?xml version="1.0" encoding="UTF-8" standalone="no"?>
<!-- Created with Inkscape (http://www.inkscape.org/) -->

<svg
   xmlns:dc="http://purl.org/dc/elements/1.1/"
   xmlns:cc="http://creativecommons.org/ns#"
   xmlns:rdf="http://www.w3.org/1999/02/22-rdf-syntax-ns#"
   xmlns:svg="http://www.w3.org/2000/svg"
   xmlns="http://www.w3.org/2000/svg"
   xmlns:sodipodi="http://sodipodi.sourceforge.net/DTD/sodipodi-0.dtd"
   xmlns:inkscape="http://www.inkscape.org/namespaces/inkscape"
   version="1.1"
   id="svg1406"
   width="211.745"
   height="200"
   viewBox="0 0 211.745 200"
   sodipodi:docname="collab.svg"
   inkscape:version="0.92.4 (5da689c313, 2019-01-14)">
  <metadata
     id="metadata1412">
    <rdf:RDF>
      <cc:Work
         rdf:about="">
        <dc:format>image/svg+xml</dc:format>
        <dc:type
           rdf:resource="http://purl.org/dc/dcmitype/StillImage" />
        <dc:title></dc:title>
      </cc:Work>
    </rdf:RDF>
  </metadata>
  <defs
     id="defs1410" />
  <sodipodi:namedview
     pagecolor="#ffffff"
     bordercolor="#666666"
     borderopacity="1"
     objecttolerance="10"
     gridtolerance="10"
     guidetolerance="10"
     inkscape:pageopacity="0"
     inkscape:pageshadow="2"
     inkscape:window-width="1920"
     inkscape:window-height="1017"
     id="namedview1408"
     showgrid="false"
     inkscape:zoom="1.3111111"
     inkscape:cx="121.08997"
     inkscape:cy="186.04138"
     inkscape:window-x="-8"
     inkscape:window-y="-8"
     inkscape:window-maximized="1"
     inkscape:current-layer="svg1406" />
  <path
     style="fill:#000000;stroke-width:0.27792037"
     d="m 40.703853,199.73773 c -0.06387,-0.20214 -0.172172,-1.18781 -0.240651,-2.19037 l -0.124481,-1.82285 5.226848,-4.15244 c 2.874753,-2.28384 5.234658,-4.22394 5.244218,-4.31133 0.0095,-0.0874 -1.757929,0.10434 -3.927709,0.42607 l -3.945079,0.58495 -0.248795,0.96354 c -0.336978,1.30517 -0.680377,1.65833 -1.612521,1.65833 -0.845518,0 -1.451273,-0.74189 -1.307338,-1.60118 0.05706,-0.34048 -0.08324,-0.46421 -0.474882,-0.41887 -2.652806,0.30711 -19.158135,2.88103 -19.287349,3.00776 -0.09189,0.0901 -0.303122,0.56135 -0.469393,1.04716 l -0.302311,0.88329 -3.671528,0.0776 -3.671525,0.0776 0.08295,-1.74091 0.08295,-1.7409 14.096651,-3.35464 c 7.753146,-1.84506 14.165213,-3.42325 14.249061,-3.50709 0.138127,-0.13812 6.802935,-53.9779 6.808743,-55.00245 0.0028,-0.40848 -3.187691,-2.18082 -3.432622,-1.90714 -0.05861,0.0655 -0.692494,1.51509 -1.408667,3.22136 -3.393963,8.08623 -7.097836,11.96739 -10.459532,10.9602 l -1.12933,-0.33836 0.162333,-2.13743 c 0.0893,-1.17559 0.351736,-4.82632 0.583189,-8.11273 0.793768,-11.27048 1.7885,-19.23165 2.74677,-21.98349 0.296291,-0.8509 0.427691,-2.3218 0.431971,-4.83582 0.0086,-5.032064 0.327001,-6.764634 1.77505,-9.657734 l 1.217152,-2.43181 -1.842528,-0.0158 c -1.013381,-0.009 -8.507811,-0.17335 -16.654262,-0.36594 l -14.8117253,-0.35006 -2.3466898,-2.3345 c -1.52305644,-1.51514 -2.22587253,-2.39715 -2.00245234,-2.51303 0.1893332,-0.0982 4.34629344,-0.3237 9.23769214,-0.50115 4.8913983,-0.17743 9.8001663,-0.39736 10.9083733,-0.48872 l 2.014923,-0.1661 0.0011,-1.70435 c 0.0014,-2.25509 0.629206,-6.00207 1.374327,-8.20249 1.35741,-4.00856 4.376127,-9.10707 10.136832,-17.12074 3.707319,-5.15723 4.067614,-5.93856 4.743906,-10.2874 0.525658,-3.38029 1.303335,-5.06858 2.642467,-5.73671 0.534996,-0.26692 2.598555,-0.74546 4.585685,-1.06343 3.771435,-0.60348 8.515286,-1.66037 10.765634,-2.39851 l 1.31637,-0.43177 -0.398538,-0.7707 c -0.219195,-0.42388 -0.54489,-1.35186 -0.72376,-2.06218 -0.277031,-1.10024 -0.25766,-1.39454 0.13079,-1.98743 0.250795,-0.38276 0.633324,-0.69593 0.850074,-0.69593 0.754888,0 0.72754,-0.56587 -0.15758,-3.26199 -0.747523,-2.27693 -0.895071,-3.16027 -0.917443,-5.4925 -0.02418,-2.53205 0.03882,-2.89043 0.709614,-4.02985 3.858785,-6.55467 12.455473,-9.3886 18.737112,-6.17676 1.807177,0.92403 2.988394,2.46848 3.997162,5.22633 1.827159,4.99536 3.626694,13.54592 3.626694,17.23251 0,1.16348 0.0687,1.28398 0.939648,1.64788 0.516821,0.21594 4.612672,1.3429 9.101892,2.50436 11.215027,2.90157 10.958427,2.82088 12.067657,3.79481 l 0.98976,0.86901 -0.0543,2.46924 c -0.047,2.14128 0.0208,2.55087 0.51088,3.08394 1.46736,1.59608 1.65201,2.24085 1.51616,5.2948 l -0.12792,2.87633 2.36421,5.53213 c 2.34976,5.49833 4.16002,10.13055 4.51762,11.55993 0.15547,0.6215 0.58716,0.91485 2.56426,1.74247 1.30751,0.54734 2.39973,0.96143 2.42714,0.92021 0.0275,-0.0412 0.31741,-0.52052 0.64444,-1.06511 0.82528,-1.37425 1.64979,-1.74823 3.51361,-1.59366 1.12869,0.0936 1.74133,0.30742 2.25001,0.7853 l 0.699,0.65668 6.2648,-0.58186 c 3.44565,-0.32001 6.32305,-0.64009 6.39422,-0.71127 0.0712,-0.0712 0.61918,-7.24931 1.21776,-15.95139 0.59859,-8.70209 1.22524,-16.18204 1.39255,-16.62212 0.6445,-1.69518 -0.26169,-1.95596 -2.97111,-0.85502 -0.92453,0.37567 -2.5154,0.89264 -3.53528,1.14883 l -1.85429,0.46578 -1.59092,-1.66674 c -0.87501,-0.9167 -2.13438,-1.94398 -2.79861,-2.28285 -1.13305,-0.57804 -1.1983,-0.67388 -1.05598,-1.5509 0.14741,-0.90831 0.12276,-0.9372 -0.8705,-1.01985 -0.84916,-0.0707 -1.0892,-0.23731 -1.41809,-0.98441 -0.35399,-0.80422 -0.50932,-0.89489 -1.46873,-0.8573 -0.59005,0.0231 -1.2089,-0.094 -1.3752,-0.26033 -0.19488,-0.19489 -0.25786,-1.27311 -0.17712,-3.03358 l 0.12526,-2.73122 -1.02948,-1.1812 c -1.09778,-1.25958 -2.762,-4.26271 -3.30683,-5.96727 -0.18182,-0.56882 -0.47839,-2.00706 -0.65906,-3.19608 l -0.32848,-2.16186 -1.11168,-0.0852 c -0.74252,-0.0569 -1.27115,-0.28767 -1.59187,-0.6948 -0.67093,-0.85172 -0.61381,-1.02644 0.33559,-1.02644 0.68349,0 0.92514,-0.19024 1.38385,-1.08936 0.58802,-1.15261 4.87964,-5.94755 8.5289,-9.52916 2.44942,-2.40401 4.05414,-3.25937 7.41836,-3.95427999 2.81898,-0.58227 3.38232,-0.5556 6.07498,0.28757 5.64648,1.76813999 9.31542,3.75803999 10.89398,5.90848999 1.80239,2.45534 2.39512,4.67219 3.50207,13.09793 0.52577,4.00185 0.63374,4.4071 1.53657,5.76685 0.97244,1.4646 1.63848,1.78995 2.30329,1.12514 0.26458,-0.26458 0.83137,0.15156 2.62635,1.92824 1.91732,1.89779 2.59647,2.38031 4.18301,2.97199 6.15688,2.29612 10.52809,6.27157 15.36213,13.97129 1.93126,3.07619 3.00393,5.91428 3.83155,10.13776 0.7655,3.90638 0.88453,5.23389 1.41656,15.79537 0.44003,8.73497 1.33588,15.28562 2.0904,15.28562 0.24082,0 1.8091,-0.24734 3.48509,-0.54964 3.98324,-0.71845 9.5683,-1.43486 9.84636,-1.26301 0.12054,0.0745 -0.45359,2.42006 -1.27585,5.21234 -1.03533,3.51593 -1.71257,6.52953 -2.20263,9.80152 -1.94594,12.992684 -4.27444,23.482244 -5.66079,25.500974 -0.39431,0.57418 -2.22281,2.28582 -4.06333,3.80363 -1.84053,1.51782 -4.10492,3.56166 -5.032,4.54187 l -1.68559,1.7822 15.51802,30.68277 c 8.5349,16.87552 15.52046,30.89875 15.52349,31.16272 0.0153,1.3364 1.34196,1.33408 -39.59818,0.0694 -34.47782,-1.06505 -38.43505,-1.14242 -39.16506,-0.76574 -1.20012,0.61926 -6.24006,1.02323 -9.19308,0.73686 -2.45801,-0.23836 -2.50851,-0.25809 -2.91816,-1.14039 -0.28607,-0.61605 -0.72218,-0.99534 -1.3896,-1.20852 -0.535,-0.17088 -2.56326,-1.06761 -4.50723,-1.99274 l -3.53448,-1.68206 -0.49537,0.58128 -0.49534,0.58127 -4.30776,-1.62316 c -4.14905,-1.56335 -4.30777,-1.65189 -4.30777,-2.40286 0,-0.76167 -0.0601,-0.79171 -2.596905,-1.29873 -1.428293,-0.28547 -2.666345,-0.44957 -2.751249,-0.36469 -0.08488,0.0849 -0.01056,1.02478 0.165112,2.08864 0.175701,1.06387 0.319442,3.73552 0.319442,5.93701 v 4.0027 l -3.795864,0.18205 c -2.087738,0.10012 -5.46447,0.18204 -7.50385,0.18204 -3.049342,0 -3.707985,-0.0714 -3.707985,-0.40191 0,-0.33563 -0.251796,-0.31528 -1.526784,0.12338 -2.262077,0.77827 -5.968395,1.11168 -9.219062,0.82932 -3.481509,-0.30241 -5.794334,-0.83172 -8.936279,-2.04514 -5.719268,-2.20878 -8.002772,-3.99606 -6.596607,-5.16308 0.426858,-0.35425 3.767044,-0.96684 6.925386,-1.2701 l 1.907535,-0.18317 -0.934813,-0.56591 c -0.514181,-0.31124 -1.345663,-0.92509 -1.847754,-1.36409 -0.502091,-0.43901 -1.020273,-0.79819 -1.151507,-0.79819 -0.131234,0 -3.534897,1.91987 -7.563658,4.26639 l -7.325064,4.2664 -0.08393,1.2731 c -0.09363,1.41989 -0.02418,1.38219 -3.182632,1.73061 -1.203395,0.13275 -1.62778,0.0855 -1.715214,-0.19112 z m 167.148297,-4.14865 c 0,-0.39587 -29.69209,-59.21619 -30.07796,-59.58472 -0.19965,-0.1907 -0.24848,-0.10349 -0.15558,0.27792 0.0745,0.30571 5.66536,13.22003 12.42418,28.69848 6.85827,15.70618 12.2497,28.40502 12.20037,28.73638 -0.0486,0.32655 -0.30098,0.72698 -0.56087,0.88985 -0.33639,0.21084 -8.38135,0.11589 -27.93099,-0.32965 -15.10217,-0.34418 -29.45953,-0.70067 -31.90523,-0.79221 -2.4457,-0.0915 -4.37839,-0.0914 -4.29487,2.8e-4 0.13949,0.15321 13.79774,0.60957 51.40237,1.7175 13.41446,0.39523 16.7407,0.51184 18.27326,0.64063 0.34393,0.0289 0.62532,-0.0856 0.62532,-0.25457 z m -21.28995,-31.75953 -12.15957,-27.91389 -3.35497,-0.1687 c -10.96093,-0.55112 -20.30697,-1.0602 -26.24824,-1.42974 -3.72561,-0.23173 -6.80422,-0.38465 -6.84135,-0.33982 -0.0371,0.0448 -0.99923,4.92342 -2.13804,10.84129 l -2.07053,10.75978 1.92596,2.26165 c 1.75807,2.06453 1.89897,2.32086 1.61647,2.94088 -0.1702,0.37358 -0.30947,0.90926 -0.30947,1.1904 0,0.9 6.72412,7.02412 12.10919,11.02871 2.8412,2.11284 5.55068,4.91233 6.47393,6.68896 0.6361,1.22404 0.38578,2.43088 -0.77851,3.75359 -1.69985,1.93113 -5.89397,4.67828 -8.61803,5.64482 -0.90127,0.31977 -1.10571,0.28637 -2.33053,-0.38075 l -1.34261,-0.73126 -1.08845,1.25064 c -0.59864,0.68785 -1.08878,1.34444 -1.08919,1.45908 0,0.11464 1.71888,0.2181 3.82065,0.22989 2.10177,0.0118 15.20224,0.2932 29.11216,0.62532 13.90991,0.33213 25.33124,0.51368 25.38071,0.40346 0.0495,-0.11023 -5.38184,-12.76167 -12.06958,-28.11431 z m -59.88817,14.30925 c 0.91698,-4.81734 1.38522,-7.90444 1.23686,-8.15421 -0.13132,-0.22107 -1.08178,-1.18559 -2.11214,-2.14336 -1.25403,-1.16568 -1.91806,-1.61682 -2.0085,-1.36456 -0.0743,0.20727 -0.93312,3.35906 -1.90842,7.00399 l -1.7733,6.62714 2.37633,2.89163 c 1.30695,1.5904 2.45217,2.89163 2.54494,2.89163 0.0927,0 0.83265,-3.48852 1.64423,-7.75226 z m -24.51004,3.47101 c -0.17926,-3.79384 -0.11534,-3.97662 1.58092,-4.52092 0.71417,-0.22917 0.94857,-0.6276 2.02421,-3.44079 0.66909,-1.74989 1.47534,-4.10755 1.79164,-5.23925 0.53672,-1.92023 0.55239,-2.27287 0.23476,-5.28049 -0.18721,-1.77257 -0.42806,-3.38662 -0.53525,-3.58678 -0.11981,-0.22381 -1.58392,2.23733 -3.80262,6.39217 -3.512965,6.57853 -3.632685,6.75975 -4.555191,6.89506 l -0.947374,0.13896 -1.571696,5.06835 c -1.326124,4.27645 -1.510719,5.11898 -1.181328,5.39235 0.331392,0.27504 5.549259,1.51514 6.735199,1.60072 0.32289,0.0233 0.36171,-0.56246 0.22673,-3.41938 z m -51.50314,-0.30693 c 2.889204,-0.68717 5.726882,-1.37697 6.305901,-1.53289 l 1.052791,-0.28349 -0.400122,-0.9576 c -0.587996,-1.40729 -0.498089,-2.2471 0.464071,-4.33452 l 0.864166,-1.87484 -0.563262,-1.76029 c -0.840069,-2.62532 -0.935424,-3.59592 -0.496588,-5.05412 0.376527,-1.25106 0.356989,-1.4338 -0.399427,-3.73543 -0.437419,-1.33102 -1.438238,-4.46221 -2.224057,-6.9582 -0.78582,-2.496 -1.481955,-4.48498 -1.546988,-4.41995 -0.143296,0.14331 -9.004425,31.54294 -9.004425,31.90746 0,0.39548 0.32739,0.34065 5.94794,-0.99613 z m 28.949296,-0.81792 c 1.107234,-0.83337 2.590551,-2.26559 3.296246,-3.1827 2.018341,-2.62298 5.787525,-8.70395 5.510577,-8.89043 -0.137793,-0.0928 -1.398162,-0.89901 -2.800798,-1.7916 -1.402636,-0.89259 -2.550253,-1.70163 -2.550253,-1.79787 0,-0.0962 1.141364,-3.16309 2.536385,-6.81521 l 2.536357,-6.64023 -1.708405,-9.3488 c -0.93962,-5.14184 -1.705819,-9.43642 -1.702623,-9.5435 0.0078,-0.25852 -11.840574,-0.1414 -12.10143,0.11962 -0.444701,0.445 -0.692022,5.35619 -0.85052,16.88926 l -0.166141,12.08953 -1.100648,1.32396 -1.100648,1.32396 0.5955,2.419 c 1.392715,5.6573 5.986571,15.36023 7.272314,15.36023 0.176508,0 1.226852,-0.68185 2.334087,-1.51522 z m 40.250174,-9.77589 c 1.54826,-5.83277 1.7766,-7.05163 1.32098,-7.05163 -0.3984,0 -2.51193,4.83665 -2.93348,6.71311 -0.77462,3.4479 -0.88006,7.91868 -0.15552,6.59327 0.11517,-0.2107 0.91077,-3.02533 1.76802,-6.25475 z m 10.41412,5.20487 c 0.37422,-1.11926 0.4029,-1.69553 0.0844,-1.69553 -0.12729,0 -0.35696,0.69239 -0.51034,1.53864 -0.29707,1.639 -0.0945,1.7136 0.42594,0.15689 z M 48.586147,158.37939 c 2.494363,-8.84125 3.592954,-13.15935 3.479423,-13.67621 -0.136319,-0.62065 -3.461775,-5.3166 -3.461775,-4.88844 0,0.34591 -3.648539,29.94162 -3.795864,30.7907 -0.09283,0.535 -0.100886,0.91019 -0.01807,0.83377 0.08296,-0.0764 1.791224,-5.95335 3.796169,-13.05982 z m 61.122683,0.43297 c -0.38395,-0.43072 -0.55823,0.005 -0.3407,0.85192 l 0.20477,0.79707 0.18357,-0.6948 c 0.10097,-0.38214 0.0795,-0.81153 -0.0476,-0.95419 z m 23.60814,-15.23467 c 0.94701,-4.92961 1.72144,-9.18179 1.72094,-9.44929 0,-0.38026 -0.23835,-0.48636 -1.08934,-0.48636 h -1.08844 l -1.8086,7.43437 c -0.99473,4.0889 -1.84936,7.66046 -1.8992,7.93679 -0.0806,0.44682 1.89728,3.48627 2.28779,3.51573 0.0853,0.006 0.92984,-4.02163 1.87685,-8.95124 z m -38.57962,-9.77878 c 0,-0.143 -0.270722,-0.54946 -0.603059,-0.90324 -0.559481,-0.59554 -0.827369,-0.64323 -3.612965,-0.64323 -2.220667,0 -3.008682,0.0909 -3.008682,0.34718 0,0.48043 2.212885,12.75619 2.392283,13.27091 0.126454,0.36283 4.829227,-11.3849 4.832423,-12.07162 z M 135.71606,106.344 c 0.46074,-0.65778 0.52447,-3.08803 0.18788,-7.163884 l -0.17212,-2.08419 -2.01862,0.0944 -2.01859,0.0944 -0.4193,-1.0035 c -0.23062,-0.55192 -0.49609,-1.56373 -0.58994,-2.24848 l -0.17064,-1.24498 h -6.79618 c -6.71253,0 -6.80247,0.008 -7.30256,0.62529 -0.43964,0.54294 -0.81933,0.63815 -2.88264,0.72289 l -2.37633,0.0976 1.34625,1.06416 c 2.04026,1.61273 2.88092,3.09028 3.14528,5.528154 0.0709,0.65354 0.2678,0.7082 6.74309,1.87182 3.66855,0.65925 6.99587,1.33321 7.39405,1.4977 0.39815,0.16449 1.52372,0.84692 2.50128,1.51652 2.01017,1.37695 2.8048,1.52343 3.42909,0.63213 z"
     id="path1959"
     inkscape:connector-curvature="0" />
</svg>
