<?xml version="1.0" encoding="UTF-8" standalone="no"?>
<!-- Created with Inkscape (http://www.inkscape.org/) -->

<svg
   xmlns:dc="http://purl.org/dc/elements/1.1/"
   xmlns:cc="http://creativecommons.org/ns#"
   xmlns:rdf="http://www.w3.org/1999/02/22-rdf-syntax-ns#"
   xmlns:svg="http://www.w3.org/2000/svg"
   xmlns="http://www.w3.org/2000/svg"
   xmlns:sodipodi="http://sodipodi.sourceforge.net/DTD/sodipodi-0.dtd"
   xmlns:inkscape="http://www.inkscape.org/namespaces/inkscape"
   width="250"
   height="252"
   viewBox="0 0 66.145833 66.674999"
   version="1.1"
   id="svg8"
   inkscape:export-filename="C:\Users\diginamicS01P03\Documents\FIL ROUGE\logo.png"
   inkscape:export-xdpi="96"
   inkscape:export-ydpi="96"
   inkscape:version="0.92.4 (5da689c313, 2019-01-14)"
   sodipodi:docname="logo.svg">
  <defs
     id="defs2" />
  <sodipodi:namedview
     id="base"
     pagecolor="#ffffff"
     bordercolor="#666666"
     borderopacity="1.0"
     inkscape:pageopacity="0.0"
     inkscape:pageshadow="2"
     inkscape:zoom="0.7"
     inkscape:cx="-66.681876"
     inkscape:cy="435.13467"
     inkscape:document-units="mm"
     inkscape:current-layer="layer1"
     showgrid="false"
     inkscape:window-width="1920"
     inkscape:window-height="1017"
     inkscape:window-x="-8"
     inkscape:window-y="-8"
     inkscape:window-maximized="1"
     units="px" />
  <metadata
     id="metadata5">
    <rdf:RDF>
      <cc:Work
         rdf:about="">
        <dc:format>image/svg+xml</dc:format>
        <dc:type
           rdf:resource="http://purl.org/dc/dcmitype/StillImage" />
        <dc:title></dc:title>
      </cc:Work>
    </rdf:RDF>
  </metadata>
  <g
     inkscape:label="Calque 1"
     inkscape:groupmode="layer"
     id="layer1"
     transform="translate(0,-230.32501)">
    <g
       id="g4545"
       transform="matrix(0.34212137,0,0,0.34212137,1.2917309,193.85521)"
       inkscape:export-xdpi="96"
       inkscape:export-ydpi="96">
      <g
         transform="matrix(0.99894687,0,0,0.99894687,-8.4936862,75.458752)"
         id="g4633">
        <rect
           style="fill:#000000;fill-opacity:1;stroke-width:0.26458332"
           id="rect860"
           width="159.02538"
           height="148.06732"
           x="25.657875"
           y="48.439339" />
        <path
           style="fill:#fffffe;fill-opacity:1;stroke-width:0.26458332"
           d="M 29.199733,221.1158 C 20.43898,219.52299 13.456204,213.0216 11.169624,204.32869 l -0.591565,-2.24896 v -75.67084 c 0,-71.456466 0.02607,-75.781356 0.468105,-77.655216 1.955503,-8.289687 8.083154,-14.609774 16.479509,-16.997036 l 2.10239,-0.597752 75.006407,-0.06932 c 66.16628,-0.06115 75.28142,-0.02186 77.33984,0.333359 9.50447,1.640203 16.93493,9.070664 18.57514,18.575139 0.35522,2.05841 0.39451,11.17356 0.33335,77.339836 l -0.0693,75.00641 -0.60137,2.11667 c -2.32026,8.16675 -8.16754,14.0102 -16.34625,16.33558 l -2.10238,0.59775 -75.27396,0.044 c -63.132103,0.0369 -75.599117,-0.0151 -77.289787,-0.32251 z m 25.554494,-31.74478 c 3.37755,-0.87974 6.09047,-3.15751 7.62887,-6.40518 l 0.84705,-1.7882 0.0819,-7.0776 0.0819,-7.0776 h 37.819643 37.81963 v 5.91701 c 0,3.25435 0.12153,6.55782 0.27006,7.34104 0.91141,4.80584 4.63664,8.4489 9.49061,9.28127 4.75552,0.81548 9.80016,-1.86438 12.00997,-6.38005 l 0.85124,-1.73948 0.0817,-7.2099 0.0817,-7.20989 h 5.80528 5.80529 v -19.59309 c 0,-21.92052 0.0242,-21.58755 -1.85914,-25.53414 -1.80227,-3.77663 -5.61798,-7.2719 -9.43171,-8.63965 l -1.64413,-0.58965 -6.94364,-16.517534 c -4.95116,-11.77781 -7.23312,-16.90278 -7.95242,-17.86009 -1.76387,-2.34748 -4.30779,-4.02478 -7.2774,-4.798272 -2.3163,-0.60332 -71.968613,-0.59309 -74.287533,0.0109 -2.91767,0.759962 -5.67391,2.676322 -7.34722,5.108402 -0.46293,0.67284 -3.94236,8.5832 -7.73207,17.57859 l -6.89037,16.355254 -1.99185,0.86051 c -4.885704,2.11072 -8.315254,5.76494 -10.094954,10.75627 l -0.6132,1.71979 -0.0739,20.57135 -0.0739,20.57136 h 5.69631 5.696314 v 6.07239 c 0,3.52635 0.12581,6.66026 0.30006,7.47448 1.36716,6.38821 7.68725,10.40583 13.8459,8.80171 z m -5.47769,-43.48287 c -8.02437,-2.65503 -10.701604,-12.51999 -5.04396,-18.58579 2.36916,-2.54008 4.95376,-3.68805 8.32585,-3.69799 3.45955,-0.0102 5.98755,0.99626 8.29288,3.30159 3.4838,3.4838 4.29449,8.73763 2.05423,13.31284 -0.92211,1.88319 -3.32754,4.13179 -5.51498,5.15542 -2.30721,1.07967 -5.74589,1.29747 -8.11402,0.51393 z m 96.635903,0.0895 c -7.99571,-2.23228 -10.9952,-12.26871 -5.52416,-18.48413 2.26037,-2.56792 5.11844,-3.88334 8.45346,-3.89066 2.44094,-0.005 3.81956,0.3261 5.86465,1.41005 1.96818,1.04319 3.72859,2.94719 4.78315,5.1733 0.79522,1.67868 0.84269,1.95027 0.84269,4.82159 0,2.8908 -0.0426,3.12972 -0.85286,4.78558 -1.16349,2.37769 -3.14041,4.32409 -5.55795,5.47218 -1.65724,0.78701 -2.28004,0.9366 -4.24787,1.02029 -1.54134,0.0655 -2.7884,-0.0366 -3.76111,-0.3082 z M 53.920177,111.12921 c 5.84341,-14.177324 11.23281,-26.843554 11.64438,-27.366784 1.15649,-1.47024 -0.45994,-1.40666 35.765593,-1.40666 36.08501,0 34.69909,-0.0526 35.68372,1.35319 0.23705,0.33845 0.78126,1.45235 1.20935,2.47535 0.42809,1.023 3.03399,7.24758 5.79088,13.832404 l 5.01253,11.97239 H 101.2962 53.565757 Z"
           id="path858"
           inkscape:connector-curvature="0" />
        <circle
           style="fill:#000000;fill-opacity:1;stroke-width:0.26458332"
           id="path4565"
           cx="79.779961"
           cy="98.552376"
           r="6.8153729" />
        <ellipse
           style="fill:#000000;fill-opacity:1;stroke-width:0.26458332"
           id="path4567"
           cx="79.779961"
           cy="112.98493"
           rx="11.358955"
           ry="8.4189901" />
        <circle
           style="fill:#000000;fill-opacity:1;stroke-width:0.26458332"
           id="path4565-4"
           cx="122.40945"
           cy="98.151466"
           r="6.8153729" />
        <ellipse
           style="fill:#000000;fill-opacity:1;stroke-width:0.26458332"
           id="path4567-2"
           cx="122.40945"
           cy="112.58402"
           rx="11.358955"
           ry="8.4189901" />
        <circle
           style="fill:#000000;fill-opacity:0.68220341;stroke-width:0.26458332"
           id="path4565-4-8"
           cx="86.060791"
           cy="98.953278"
           r="6.8153729" />
        <ellipse
           style="fill:#000000;fill-opacity:0.68220341;stroke-width:0.26458332"
           id="path4567-2-7"
           cx="86.060791"
           cy="113.38584"
           rx="11.358955"
           ry="8.4189901" />
        <circle
           style="fill:#000000;fill-opacity:0.68220341;stroke-width:0.26458332"
           id="path4565-4-8-8"
           cx="129.09119"
           cy="98.418732"
           r="6.8153729" />
        <ellipse
           style="fill:#000000;fill-opacity:0.68220341;stroke-width:0.26458332"
           id="path4567-2-7-2"
           cx="129.09119"
           cy="112.8513"
           rx="11.358955"
           ry="8.4189901" />
      </g>
      <circle
         r="91.28125"
         cy="207.93295"
         cx="92.374725"
         id="path4531"
         style="fill:none;fill-opacity:0.68220341;stroke:#000000;stroke-width:4.46500015;stroke-miterlimit:4;stroke-dasharray:none;stroke-opacity:1" />
    </g>
  </g>
</svg>
